<?xml version="1.0" encoding="UTF-8"?>
<!DOCTYPE svg PUBLIC "-//W3C//DTD SVG 1.1//EN" "http://www.w3.org/Graphics/SVG/1.1/DTD/svg11.dtd">
<!-- Creator: CorelDRAW 2021 (64-Bit) -->
<svg xmlns="http://www.w3.org/2000/svg" xml:space="preserve" width="377px" height="142px" version="1.1" style="shape-rendering:geometricPrecision; text-rendering:geometricPrecision; image-rendering:optimizeQuality; fill-rule:evenodd; clip-rule:evenodd"
viewBox="0 0 569.63 214.13"
 xmlns:xlink="http://www.w3.org/1999/xlink"
 xmlns:xodm="http://www.corel.com/coreldraw/odm/2003">
 <defs>
  <style type="text/css">
   <![CDATA[
    .str0 {stroke:black;stroke-width:3.15;stroke-linecap:round;stroke-linejoin:round;stroke-miterlimit:2.61313}
    .fil1 {fill:black}
    .fil0 {fill:black;fill-rule:nonzero}
    .fil2 {fill:url(#id0)}
   ]]>
  </style>
  <linearGradient id="id0" gradientUnits="userSpaceOnUse" x1="485.41" y1="159.11" x2="56.78" y2="160.35">
   <stop offset="0" style="stop-opacity:1; stop-color:#D62486"/>
   <stop offset="0.4" style="stop-opacity:1; stop-color:#9A318C"/>
   <stop offset="1" style="stop-opacity:1; stop-color:#5D3F92"/>
  </linearGradient>
 </defs>
 <g id="Layer_x0020_1">
  <metadata id="CorelCorpID_0Corel-Layer"/>
  <g id="_2117459226272">
   <polygon class="fil0" points="196.13,152.31 196.13,25.74 150.43,25.74 150.43,0 272.87,0 272.87,25.74 227.39,25.74 227.39,152.31 "/>
   <circle class="fil1 str0" cx="124" cy="132.8" r="18.12"/>
   <path class="fil2" d="M11.63 177.17c173.03,-41.55 349.85,-44.84 522.46,-32.8 33.65,3.4 33.28,13.45 35.54,22.51 0.06,5.51 -3.52,20.6 -24.12,17.87 -206.52,-21.11 -357.45,0.82 -523.74,29.1 -27.49,3.71 -26.68,-30.96 -10.14,-36.68z"/>
   <polygon class="fil0" points="332.59,152.31 277.37,0 311.14,0 350.34,112.74 387.95,0 421.15,0 366.25,152.31 "/>
  </g>
 </g>
</svg>
